# xmcd
#
# Track frame offsets:
#  150
#  26485
#  44130
#  69885
#  91055
#  128222
#  148647
#  171634
#  194667
#  217242
#  244200
#  265135
#  287910
#  311402
#
# Disc length: 4383 seconds
#
# Revision: 0
# Processed by: cddbd v1.4PL0 Copyright (c) Steve Scherf et al.
# Submitted via: AltoMP3_Maker 3.0
#
DISCID=df111d0e
DTITLE=Roy Gains - Lucille Work For Me!
DYEAR=1900
DGENRE=
TTITLE0=Lucille
TTITLE1=Big Fine Woman
TTITLE2=See and Don't See
TTITLE3=Pushin' Out, Pushin' It
TTITLE4=Medley
TTITLE5=Satisfaction
TTITLE6=Goin' To New York
TTITLE7=She Came On Time
TTITLE8=Come Home
TTITLE9=Low Down and Funky
TTITLE10=Southern (Suzzen) Woman
TTITLE11=Rain Five Days
TTITLE12=Make Our Dreams Come True
TTITLE13=I'm Just Another Blues
EXTD=
EXTT0=
EXTT1=
EXTT2=
EXTT3=
EXTT4=
EXTT5=
EXTT6=
EXTT7=
EXTT8=
EXTT9=
EXTT10=
EXTT11=
EXTT12=
EXTT13=
PLAYORDER=
